M48
INCH,LZ
%
T01C0.011800
X018303Y012270
X018599Y012074
X018894Y012270
X018894Y011877
X018303Y011877
X017295Y012092
X017295Y011654
X017295Y012529
X017670Y013154
X017420Y014904
X015420Y014785
X014664Y017655
X012232Y017092
X019858Y017655
X022671Y017092
X021170Y012592
X019733Y012529
X019733Y012092
X019733Y011654
X020795Y010779
X020620Y008642
X020421Y007967
X018358Y008642
X018483Y010779
X017670Y006154
X013977Y005722
X012008Y003149
X013977Y002193
X021851Y002193
X018303Y036890
X018599Y036694
X018894Y036890
X018894Y036497
X018303Y036497
X017295Y036712
X017295Y036274
X017295Y037149
X017670Y037774
X017420Y039524
X015420Y039405
X014664Y042275
X012232Y041712
X019858Y042275
X022671Y041712
X021170Y037212
X019733Y037149
X019733Y036712
X019733Y036274
X020795Y035399
X020620Y033262
X020421Y032587
X018358Y033262
X018483Y035399
X017670Y030774
X013977Y030342
X012008Y027769
X013977Y026813
X021851Y026813
X052773Y012270
X053069Y012074
X053364Y012270
X053364Y011877
X052773Y011877
X051765Y012092
X051765Y011654
X051765Y012529
X052140Y013154
X051890Y014904
X049890Y014785
X049134Y017655
X046702Y017092
X054328Y017655
X057141Y017092
X055640Y012592
X054203Y012529
X054203Y012092
X054203Y011654
X055265Y010779
X055090Y008642
X054891Y007967
X052828Y008642
X052953Y010779
X052140Y006154
X048447Y005722
X046478Y003149
X048447Y002193
X056321Y002193
X018303Y061510
X018599Y061314
X018894Y061510
X018894Y061117
X018303Y061117
X017295Y061332
X017295Y060894
X017295Y061769
X017670Y062394
X017420Y064144
X015420Y064025
X014664Y066895
X012232Y066332
X019858Y066895
X022671Y066332
X021170Y061832
X019733Y061769
X019733Y061332
X019733Y060894
X020795Y060019
X020620Y057882
X020421Y057207
X018358Y057882
X018483Y060019
X017670Y055394
X013977Y054962
X012008Y052389
X013977Y051433
X021851Y051433
X052773Y036890
X053069Y036694
X053364Y036890
X053364Y036497
X052773Y036497
X051765Y036712
X051765Y036274
X051765Y037149
X052140Y037774
X051890Y039524
X049890Y039405
X049134Y042275
X046702Y041712
X054328Y042275
X057141Y041712
X055640Y037212
X054203Y037149
X054203Y036712
X054203Y036274
X055265Y035399
X055090Y033262
X054891Y032587
X052828Y033262
X052953Y035399
X052140Y030774
X048447Y030342
X046478Y027769
X048447Y026813
X056321Y026813
X018303Y086140
X018599Y085944
X018894Y086140
X018894Y085747
X018303Y085747
X017295Y085962
X017295Y085524
X017295Y086399
X017670Y087024
X017420Y088774
X015420Y088655
X014664Y091525
X012232Y090962
X019858Y091525
X022671Y090962
X021170Y086462
X019733Y086399
X019733Y085962
X019733Y085524
X020795Y084649
X020620Y082512
X020421Y081837
X018358Y082512
X018483Y084649
X017670Y080024
X013977Y079592
X012008Y077019
X013977Y076063
X021851Y076063
X052773Y061510
X053069Y061314
X053364Y061510
X053364Y061117
X052773Y061117
X051765Y061332
X051765Y060894
X051765Y061769
X052140Y062394
X051890Y064144
X049890Y064025
X049134Y066895
X046702Y066332
X054328Y066895
X057141Y066332
X055640Y061832
X054203Y061769
X054203Y061332
X054203Y060894
X055265Y060019
X055090Y057882
X054891Y057207
X052828Y057882
X052953Y060019
X052140Y055394
X048447Y054962
X046478Y052389
X048447Y051433
X056321Y051433
X052773Y086140
X053069Y085944
X053364Y086140
X053364Y085747
X052773Y085747
X051765Y085962
X051765Y085524
X051765Y086399
X052140Y087024
X051890Y088774
X049890Y088655
X049134Y091525
X046702Y090962
X054328Y091525
X057141Y090962
X055640Y086462
X054203Y086399
X054203Y085962
X054203Y085524
X055265Y084649
X055090Y082512
X054891Y081837
X052828Y082512
X052953Y084649
X052140Y080024
X048447Y079592
X046478Y077019
X048447Y076063
X056321Y076063
X018303Y110760
X018599Y110564
X018894Y110760
X018894Y110367
X018303Y110367
X017295Y110582
X017295Y110144
X017295Y111019
X017670Y111644
X017420Y113394
X015420Y113275
X014664Y116145
X012232Y115582
X019858Y116145
X022671Y115582
X021170Y111082
X019733Y111019
X019733Y110582
X019733Y110144
X020795Y109269
X020620Y107132
X020421Y106457
X018358Y107132
X018483Y109269
X017670Y104644
X013977Y104212
X012008Y101639
X013977Y100683
X021851Y100683
X052773Y110760
X053069Y110564
X053364Y110760
X053364Y110367
X052773Y110367
X051765Y110582
X051765Y110144
X051765Y111019
X052140Y111644
X051890Y113394
X049890Y113275
X049134Y116145
X046702Y115582
X054328Y116145
X057141Y115582
X055640Y111082
X054203Y111019
X054203Y110582
X054203Y110144
X055265Y109269
X055090Y107132
X054891Y106457
X052828Y107132
X052953Y109269
X052140Y104644
X048447Y104212
X046478Y101639
X048447Y100683
X056321Y100683
T02C0.019400
X017358Y014154
X018858Y015654
X019670Y015654
X022233Y013529
X022233Y012779
X022796Y012779
X022233Y012029
X020420Y011529
X020420Y009967
X021733Y007819
X022983Y007819
X022983Y005654
X021733Y005654
X019754Y004527
X018504Y004527
X015748Y004527
X014498Y004527
X016045Y006654
X016045Y007404
X015420Y009279
X015420Y010467
X019170Y007404
X013983Y016404
X016483Y020154
X017483Y020154
X017358Y038774
X018858Y040274
X019670Y040274
X022233Y038149
X022233Y037399
X022796Y037399
X022233Y036649
X020420Y036149
X020420Y034587
X021733Y032439
X022983Y032439
X022983Y030274
X021733Y030274
X019754Y029147
X018504Y029147
X015748Y029147
X014498Y029147
X016045Y031274
X016045Y032024
X015420Y033899
X015420Y035087
X019170Y032024
X013983Y041024
X016483Y044774
X017483Y044774
X051828Y014154
X053328Y015654
X054140Y015654
X056703Y013529
X056703Y012779
X057266Y012779
X056703Y012029
X054890Y011529
X054890Y009967
X056203Y007819
X057453Y007819
X057453Y005654
X056203Y005654
X054224Y004527
X052974Y004527
X050218Y004527
X048968Y004527
X050515Y006654
X050515Y007404
X049890Y009279
X049890Y010467
X053640Y007404
X048453Y016404
X050953Y020154
X051953Y020154
X073399Y016632
X073538Y006374
X073538Y005124
X074788Y005874
X075038Y005374
X075538Y005124
X076038Y004124
X076038Y003124
X076913Y006499
X077038Y007374
X076538Y007624
X078288Y007874
X079163Y008194
X080163Y007485
X080163Y006874
X078288Y006874
X080163Y004874
X082288Y004874
X082288Y006874
X082288Y007485
X081163Y008749
X076288Y009374
X075288Y009374
X074538Y008624
X073663Y010249
X075288Y011874
X076288Y011874
X017358Y063394
X018858Y064894
X019670Y064894
X022233Y062769
X022233Y062019
X022796Y062019
X022233Y061269
X020420Y060769
X020420Y059207
X021733Y057059
X022983Y057059
X022983Y054894
X021733Y054894
X019754Y053767
X018504Y053767
X015748Y053767
X014498Y053767
X016045Y055894
X016045Y056644
X015420Y058519
X015420Y059707
X019170Y056644
X013983Y065644
X016483Y069394
X017483Y069394
X051828Y038774
X053328Y040274
X054140Y040274
X056703Y038149
X056703Y037399
X057266Y037399
X056703Y036649
X054890Y036149
X054890Y034587
X056203Y032439
X057453Y032439
X057453Y030274
X056203Y030274
X054224Y029147
X052974Y029147
X050218Y029147
X048968Y029147
X050515Y031274
X050515Y032024
X049890Y033899
X049890Y035087
X053640Y032024
X048453Y041024
X050953Y044774
X051953Y044774
X017358Y088024
X018858Y089524
X019670Y089524
X022233Y087399
X022233Y086649
X022796Y086649
X022233Y085899
X020420Y085399
X020420Y083837
X021733Y081689
X022983Y081689
X022983Y079524
X021733Y079524
X019754Y078397
X018504Y078397
X015748Y078397
X014498Y078397
X016045Y080524
X016045Y081274
X015420Y083149
X015420Y084337
X019170Y081274
X013983Y090274
X016483Y094024
X017483Y094024
X051828Y063394
X053328Y064894
X054140Y064894
X056703Y062769
X056703Y062019
X057266Y062019
X056703Y061269
X054890Y060769
X054890Y059207
X056203Y057059
X057453Y057059
X057453Y054894
X056203Y054894
X054224Y053767
X052974Y053767
X050218Y053767
X048968Y053767
X050515Y055894
X050515Y056644
X049890Y058519
X049890Y059707
X053640Y056644
X048453Y065644
X050953Y069394
X051953Y069394
X073399Y035352
X073538Y025094
X073538Y023844
X074788Y024594
X075038Y024094
X075538Y023844
X076038Y022844
X076038Y021844
X076913Y025219
X077038Y026094
X076538Y026344
X078288Y026594
X079163Y026914
X080163Y026205
X080163Y025594
X078288Y025594
X080163Y023594
X082288Y023594
X082288Y025594
X082288Y026205
X081163Y027469
X076288Y028094
X075288Y028094
X074538Y027344
X073663Y028969
X075288Y030594
X076288Y030594
X051828Y088024
X053328Y089524
X054140Y089524
X056703Y087399
X056703Y086649
X057266Y086649
X056703Y085899
X054890Y085399
X054890Y083837
X056203Y081689
X057453Y081689
X057453Y079524
X056203Y079524
X054224Y078397
X052974Y078397
X050218Y078397
X048968Y078397
X050515Y080524
X050515Y081274
X049890Y083149
X049890Y084337
X053640Y081274
X048453Y090274
X050953Y094024
X051953Y094024
X073399Y054062
X073538Y043804
X073538Y042554
X074788Y043304
X075038Y042804
X075538Y042554
X076038Y041554
X076038Y040554
X076913Y043929
X077038Y044804
X076538Y045054
X078288Y045304
X079163Y045624
X080163Y044915
X080163Y044304
X078288Y044304
X080163Y042304
X082288Y042304
X082288Y044304
X082288Y044915
X081163Y046179
X076288Y046804
X075288Y046804
X074538Y046054
X073663Y047679
X075288Y049304
X076288Y049304
X073399Y072782
X073538Y062524
X073538Y061274
X074788Y062024
X075038Y061524
X075538Y061274
X076038Y060274
X076038Y059274
X076913Y062649
X077038Y063524
X076538Y063774
X078288Y064024
X079163Y064344
X080163Y063635
X080163Y063024
X078288Y063024
X080163Y061024
X082288Y061024
X082288Y063024
X082288Y063635
X081163Y064899
X076288Y065524
X075288Y065524
X074538Y064774
X073663Y066399
X075288Y068024
X076288Y068024
X017358Y112644
X018858Y114144
X019670Y114144
X022233Y112019
X022233Y111269
X022796Y111269
X022233Y110519
X020420Y110019
X020420Y108457
X021733Y106309
X022983Y106309
X022983Y104144
X021733Y104144
X019754Y103017
X018504Y103017
X015748Y103017
X014498Y103017
X016045Y105144
X016045Y105894
X015420Y107769
X015420Y108957
X019170Y105894
X013983Y114894
X016483Y118644
X017483Y118644
X051828Y112644
X053328Y114144
X054140Y114144
X056703Y112019
X056703Y111269
X057266Y111269
X056703Y110519
X054890Y110019
X054890Y108457
X056203Y106309
X057453Y106309
X057453Y104144
X056203Y104144
X054224Y103017
X052974Y103017
X050218Y103017
X048968Y103017
X050515Y105144
X050515Y105894
X049890Y107769
X049890Y108957
X053640Y105894
X048453Y114894
X050953Y118644
X051953Y118644
X073399Y091502
X073538Y081244
X073538Y079994
X074788Y080744
X075038Y080244
X075538Y079994
X076038Y078994
X076038Y077994
X076913Y081369
X077038Y082244
X076538Y082494
X078288Y082744
X079163Y083064
X080163Y082355
X080163Y081744
X078288Y081744
X080163Y079744
X082288Y079744
X082288Y081744
X082288Y082355
X081163Y083619
X076288Y084244
X075288Y084244
X074538Y083494
X073663Y085119
X075288Y086744
X076288Y086744
X073399Y110222
X073538Y099964
X073538Y098714
X074788Y099464
X075038Y098964
X075538Y098714
X076038Y097714
X076038Y096714
X076913Y100089
X077038Y100964
X076538Y101214
X078288Y101464
X079163Y101784
X080163Y101075
X080163Y100464
X078288Y100464
X080163Y098464
X082288Y098464
X082288Y100464
X082288Y101075
X081163Y102339
X076288Y102964
X075288Y102964
X074538Y102214
X073663Y103839
X075288Y105464
X076288Y105464
T03C0.024600
X020670Y001681
X020670Y000618
X012796Y000599
X012796Y001662
X020670Y026301
X020670Y025238
X012796Y025219
X012796Y026282
X055140Y001681
X055140Y000618
X047266Y000599
X047266Y001662
X082178Y009624
X082178Y010124
X082178Y010624
X082178Y011124
X082178Y011624
X082178Y012124
X082178Y012624
X082178Y013124
X082178Y013624
X082178Y014124
X082178Y014624
X082178Y015124
X082178Y015624
X082178Y016124
X082178Y016624
X081678Y016624
X081678Y016124
X081678Y015624
X081678Y015124
X081678Y014624
X081678Y014124
X081678Y013624
X081678Y013124
X081678Y012624
X081678Y012124
X081678Y011624
X081678Y011124
X081678Y010624
X081678Y010124
X081678Y009624
X073899Y012132
X073899Y012632
X073899Y013132
X073899Y013632
X073899Y014132
X073899Y014632
X073899Y015132
X073899Y015632
X073899Y016132
X073899Y016632
X073399Y016132
X073399Y015632
X073399Y015132
X073399Y014632
X073399Y014132
X073399Y013632
X073399Y013132
X073399Y012632
X073399Y012132
X020670Y050921
X020670Y049858
X012796Y049839
X012796Y050902
X055140Y026301
X055140Y025238
X047266Y025219
X047266Y026282
X020670Y075551
X020670Y074488
X012796Y074469
X012796Y075532
X055140Y050921
X055140Y049858
X047266Y049839
X047266Y050902
X082178Y028344
X082178Y028844
X082178Y029344
X082178Y029844
X082178Y030344
X082178Y030844
X082178Y031344
X082178Y031844
X082178Y032344
X082178Y032844
X082178Y033344
X082178Y033844
X082178Y034344
X082178Y034844
X082178Y035344
X081678Y035344
X081678Y034844
X081678Y034344
X081678Y033844
X081678Y033344
X081678Y032844
X081678Y032344
X081678Y031844
X081678Y031344
X081678Y030844
X081678Y030344
X081678Y029844
X081678Y029344
X081678Y028844
X081678Y028344
X073899Y030852
X073899Y031352
X073899Y031852
X073899Y032352
X073899Y032852
X073899Y033352
X073899Y033852
X073899Y034352
X073899Y034852
X073899Y035352
X073399Y034852
X073399Y034352
X073399Y033852
X073399Y033352
X073399Y032852
X073399Y032352
X073399Y031852
X073399Y031352
X073399Y030852
X055140Y075551
X055140Y074488
X047266Y074469
X047266Y075532
X082178Y047054
X082178Y047554
X082178Y048054
X082178Y048554
X082178Y049054
X082178Y049554
X082178Y050054
X082178Y050554
X082178Y051054
X082178Y051554
X082178Y052054
X082178Y052554
X082178Y053054
X082178Y053554
X082178Y054054
X081678Y054054
X081678Y053554
X081678Y053054
X081678Y052554
X081678Y052054
X081678Y051554
X081678Y051054
X081678Y050554
X081678Y050054
X081678Y049554
X081678Y049054
X081678Y048554
X081678Y048054
X081678Y047554
X081678Y047054
X073899Y049562
X073899Y050062
X073899Y050562
X073899Y051062
X073899Y051562
X073899Y052062
X073899Y052562
X073899Y053062
X073899Y053562
X073899Y054062
X073399Y053562
X073399Y053062
X073399Y052562
X073399Y052062
X073399Y051562
X073399Y051062
X073399Y050562
X073399Y050062
X073399Y049562
X082178Y065774
X082178Y066274
X082178Y066774
X082178Y067274
X082178Y067774
X082178Y068274
X082178Y068774
X082178Y069274
X082178Y069774
X082178Y070274
X082178Y070774
X082178Y071274
X082178Y071774
X082178Y072274
X082178Y072774
X081678Y072774
X081678Y072274
X081678Y071774
X081678Y071274
X081678Y070774
X081678Y070274
X081678Y069774
X081678Y069274
X081678Y068774
X081678Y068274
X081678Y067774
X081678Y067274
X081678Y066774
X081678Y066274
X081678Y065774
X073899Y068282
X073899Y068782
X073899Y069282
X073899Y069782
X073899Y070282
X073899Y070782
X073899Y071282
X073899Y071782
X073899Y072282
X073899Y072782
X073399Y072282
X073399Y071782
X073399Y071282
X073399Y070782
X073399Y070282
X073399Y069782
X073399Y069282
X073399Y068782
X073399Y068282
X020670Y100171
X020670Y099108
X012796Y099089
X012796Y100152
X055140Y100171
X055140Y099108
X047266Y099089
X047266Y100152
X082178Y084494
X082178Y084994
X082178Y085494
X082178Y085994
X082178Y086494
X082178Y086994
X082178Y087494
X082178Y087994
X082178Y088494
X082178Y088994
X082178Y089494
X082178Y089994
X082178Y090494
X082178Y090994
X082178Y091494
X081678Y091494
X081678Y090994
X081678Y090494
X081678Y089994
X081678Y089494
X081678Y088994
X081678Y088494
X081678Y087994
X081678Y087494
X081678Y086994
X081678Y086494
X081678Y085994
X081678Y085494
X081678Y084994
X081678Y084494
X073899Y087002
X073899Y087502
X073899Y088002
X073899Y088502
X073899Y089002
X073899Y089502
X073899Y090002
X073899Y090502
X073899Y091002
X073899Y091502
X073399Y091002
X073399Y090502
X073399Y090002
X073399Y089502
X073399Y089002
X073399Y088502
X073399Y088002
X073399Y087502
X073399Y087002
X082178Y103214
X082178Y103714
X082178Y104214
X082178Y104714
X082178Y105214
X082178Y105714
X082178Y106214
X082178Y106714
X082178Y107214
X082178Y107714
X082178Y108214
X082178Y108714
X082178Y109214
X082178Y109714
X082178Y110214
X081678Y110214
X081678Y109714
X081678Y109214
X081678Y108714
X081678Y108214
X081678Y107714
X081678Y107214
X081678Y106714
X081678Y106214
X081678Y105714
X081678Y105214
X081678Y104714
X081678Y104214
X081678Y103714
X081678Y103214
X073899Y105722
X073899Y106222
X073899Y106722
X073899Y107222
X073899Y107722
X073899Y108222
X073899Y108722
X073899Y109222
X073899Y109722
X073899Y110222
X073399Y109722
X073399Y109222
X073399Y108722
X073399Y108222
X073399Y107722
X073399Y107222
X073399Y106722
X073399Y106222
X073399Y105722
T04C0.035400
X079910Y003162
X080895Y003162
X081682Y003162
X082666Y003162
X079910Y021882
X080895Y021882
X081682Y021882
X082666Y021882
X079910Y040592
X080895Y040592
X081682Y040592
X082666Y040592
X079910Y059312
X080895Y059312
X081682Y059312
X082666Y059312
X079910Y078032
X080895Y078032
X081682Y078032
X082666Y078032
X079910Y096752
X080895Y096752
X081682Y096752
X082666Y096752
T05C0.041750
X008859Y009354
X008859Y010354
X008859Y011354
X008859Y012354
X008859Y013354
X008859Y014354
X008859Y015354
X008859Y016354
X008859Y017354
X008859Y018354
X008859Y019354
X008859Y020354
X024607Y020354
X024607Y019354
X024607Y018354
X024607Y017354
X024607Y016354
X024607Y015354
X024607Y014354
X024607Y013354
X024607Y012354
X024607Y011354
X024607Y010354
X024607Y009354
X008859Y033974
X008859Y034974
X008859Y035974
X008859Y036974
X008859Y037974
X008859Y038974
X008859Y039974
X008859Y040974
X008859Y041974
X008859Y042974
X008859Y043974
X008859Y044974
X024607Y044974
X024607Y043974
X024607Y042974
X024607Y041974
X024607Y040974
X024607Y039974
X024607Y038974
X024607Y037974
X024607Y036974
X024607Y035974
X024607Y034974
X024607Y033974
X043329Y009354
X043329Y010354
X043329Y011354
X043329Y012354
X043329Y013354
X043329Y014354
X043329Y015354
X043329Y016354
X043329Y017354
X043329Y018354
X043329Y019354
X043329Y020354
X059077Y020354
X059077Y019354
X059077Y018354
X059077Y017354
X059077Y016354
X059077Y015354
X059077Y014354
X059077Y013354
X059077Y012354
X059077Y011354
X059077Y010354
X059077Y009354
X070038Y001124
X071038Y001124
X072038Y001124
X073038Y001124
X074038Y001124
X075038Y001124
X076038Y001124
X069914Y003449
X069914Y004449
X069914Y005449
X069914Y006449
X069914Y007449
X069914Y008449
X069914Y009449
X069914Y010449
X069914Y011449
X069914Y012449
X069914Y013449
X069914Y014449
X085662Y014449
X085662Y013449
X085662Y012449
X085662Y011449
X085662Y010449
X085662Y009449
X085662Y008449
X085662Y007449
X085662Y006449
X085662Y005449
X085662Y004449
X085662Y003449
X008859Y058594
X008859Y059594
X008859Y060594
X008859Y061594
X008859Y062594
X008859Y063594
X008859Y064594
X008859Y065594
X008859Y066594
X008859Y067594
X008859Y068594
X008859Y069594
X024607Y069594
X024607Y068594
X024607Y067594
X024607Y066594
X024607Y065594
X024607Y064594
X024607Y063594
X024607Y062594
X024607Y061594
X024607Y060594
X024607Y059594
X024607Y058594
X043329Y033974
X043329Y034974
X043329Y035974
X043329Y036974
X043329Y037974
X043329Y038974
X043329Y039974
X043329Y040974
X043329Y041974
X043329Y042974
X043329Y043974
X043329Y044974
X059077Y044974
X059077Y043974
X059077Y042974
X059077Y041974
X059077Y040974
X059077Y039974
X059077Y038974
X059077Y037974
X059077Y036974
X059077Y035974
X059077Y034974
X059077Y033974
X008859Y083224
X008859Y084224
X008859Y085224
X008859Y086224
X008859Y087224
X008859Y088224
X008859Y089224
X008859Y090224
X008859Y091224
X008859Y092224
X008859Y093224
X008859Y094224
X024607Y094224
X024607Y093224
X024607Y092224
X024607Y091224
X024607Y090224
X024607Y089224
X024607Y088224
X024607Y087224
X024607Y086224
X024607Y085224
X024607Y084224
X024607Y083224
X043329Y058594
X043329Y059594
X043329Y060594
X043329Y061594
X043329Y062594
X043329Y063594
X043329Y064594
X043329Y065594
X043329Y066594
X043329Y067594
X043329Y068594
X043329Y069594
X059077Y069594
X059077Y068594
X059077Y067594
X059077Y066594
X059077Y065594
X059077Y064594
X059077Y063594
X059077Y062594
X059077Y061594
X059077Y060594
X059077Y059594
X059077Y058594
X070038Y019844
X071038Y019844
X072038Y019844
X073038Y019844
X074038Y019844
X075038Y019844
X076038Y019844
X069914Y022169
X069914Y023169
X069914Y024169
X069914Y025169
X069914Y026169
X069914Y027169
X069914Y028169
X069914Y029169
X069914Y030169
X069914Y031169
X069914Y032169
X069914Y033169
X085662Y033169
X085662Y032169
X085662Y031169
X085662Y030169
X085662Y029169
X085662Y028169
X085662Y027169
X085662Y026169
X085662Y025169
X085662Y024169
X085662Y023169
X085662Y022169
X043329Y083224
X043329Y084224
X043329Y085224
X043329Y086224
X043329Y087224
X043329Y088224
X043329Y089224
X043329Y090224
X043329Y091224
X043329Y092224
X043329Y093224
X043329Y094224
X059077Y094224
X059077Y093224
X059077Y092224
X059077Y091224
X059077Y090224
X059077Y089224
X059077Y088224
X059077Y087224
X059077Y086224
X059077Y085224
X059077Y084224
X059077Y083224
X070038Y038554
X071038Y038554
X072038Y038554
X073038Y038554
X074038Y038554
X075038Y038554
X076038Y038554
X069914Y040879
X069914Y041879
X069914Y042879
X069914Y043879
X069914Y044879
X069914Y045879
X069914Y046879
X069914Y047879
X069914Y048879
X069914Y049879
X069914Y050879
X069914Y051879
X085662Y051879
X085662Y050879
X085662Y049879
X085662Y048879
X085662Y047879
X085662Y046879
X085662Y045879
X085662Y044879
X085662Y043879
X085662Y042879
X085662Y041879
X085662Y040879
X070038Y057274
X071038Y057274
X072038Y057274
X073038Y057274
X074038Y057274
X075038Y057274
X076038Y057274
X069914Y059599
X069914Y060599
X069914Y061599
X069914Y062599
X069914Y063599
X069914Y064599
X069914Y065599
X069914Y066599
X069914Y067599
X069914Y068599
X069914Y069599
X069914Y070599
X085662Y070599
X085662Y069599
X085662Y068599
X085662Y067599
X085662Y066599
X085662Y065599
X085662Y064599
X085662Y063599
X085662Y062599
X085662Y061599
X085662Y060599
X085662Y059599
X008859Y107844
X008859Y108844
X008859Y109844
X008859Y110844
X008859Y111844
X008859Y112844
X008859Y113844
X008859Y114844
X008859Y115844
X008859Y116844
X008859Y117844
X008859Y118844
X024607Y118844
X024607Y117844
X024607Y116844
X024607Y115844
X024607Y114844
X024607Y113844
X024607Y112844
X024607Y111844
X024607Y110844
X024607Y109844
X024607Y108844
X024607Y107844
X043329Y107844
X043329Y108844
X043329Y109844
X043329Y110844
X043329Y111844
X043329Y112844
X043329Y113844
X043329Y114844
X043329Y115844
X043329Y116844
X043329Y117844
X043329Y118844
X059077Y118844
X059077Y117844
X059077Y116844
X059077Y115844
X059077Y114844
X059077Y113844
X059077Y112844
X059077Y111844
X059077Y110844
X059077Y109844
X059077Y108844
X059077Y107844
X070038Y075994
X071038Y075994
X072038Y075994
X073038Y075994
X074038Y075994
X075038Y075994
X076038Y075994
X069914Y078319
X069914Y079319
X069914Y080319
X069914Y081319
X069914Y082319
X069914Y083319
X069914Y084319
X069914Y085319
X069914Y086319
X069914Y087319
X069914Y088319
X069914Y089319
X085662Y089319
X085662Y088319
X085662Y087319
X085662Y086319
X085662Y085319
X085662Y084319
X085662Y083319
X085662Y082319
X085662Y081319
X085662Y080319
X085662Y079319
X085662Y078319
X070038Y094714
X071038Y094714
X072038Y094714
X073038Y094714
X074038Y094714
X075038Y094714
X076038Y094714
X069914Y097039
X069914Y098039
X069914Y099039
X069914Y100039
X069914Y101039
X069914Y102039
X069914Y103039
X069914Y104039
X069914Y105039
X069914Y106039
X069914Y107039
X069914Y108039
X085662Y108039
X085662Y107039
X085662Y106039
X085662Y105039
X085662Y104039
X085662Y103039
X085662Y102039
X085662Y101039
X085662Y100039
X085662Y099039
X085662Y098039
X085662Y097039
T06C0.047200
X004134Y001090
X004134Y022689
X029331Y022689
X029331Y001090
X004134Y025710
X004134Y047309
X029331Y047309
X029331Y025710
X038604Y001090
X038604Y022689
X063801Y022689
X063801Y001090
X004134Y050330
X004134Y071929
X029331Y071929
X029331Y050330
X038604Y025710
X038604Y047309
X063801Y047309
X063801Y025710
X004134Y074960
X004134Y096559
X029331Y096559
X029331Y074960
X038604Y050330
X038604Y071929
X063801Y071929
X063801Y050330
X038604Y074960
X038604Y096559
X063801Y096559
X063801Y074960
X004134Y099580
X004134Y121179
X029331Y121179
X029331Y099580
X038604Y099580
X038604Y121179
X063801Y121179
X063801Y099580
T07C0.091750
X001193Y001090
X026390Y001090
X001193Y025710
X026390Y025710
X035663Y001090
X060860Y001090
X078702Y002099
X083875Y002099
X001193Y050330
X026390Y050330
X035663Y025710
X060860Y025710
X001193Y074960
X026390Y074960
X035663Y050330
X060860Y050330
X078702Y020819
X083875Y020819
X035663Y074960
X060860Y074960
X078702Y039529
X083875Y039529
X078702Y058249
X083875Y058249
X001193Y099580
X026390Y099580
X035663Y099580
X060860Y099580
X078702Y076969
X083875Y076969
X078702Y095689
X083875Y095689
T08C0.125200
X004134Y005090
X004134Y018689
X029331Y018689
X029331Y005090
X004134Y029710
X004134Y043309
X029331Y043309
X029331Y029710
X038604Y005090
X038604Y018689
X063801Y018689
X063801Y005090
X004134Y054330
X004134Y067929
X029331Y067929
X029331Y054330
X038604Y029710
X038604Y043309
X063801Y043309
X063801Y029710
X004134Y078960
X004134Y092559
X029331Y092559
X029331Y078960
X038604Y054330
X038604Y067929
X063801Y067929
X063801Y054330
X038604Y078960
X038604Y092559
X063801Y092559
X063801Y078960
X004134Y103580
X004134Y117179
X029331Y117179
X029331Y103580
X038604Y103580
X038604Y117179
X063801Y117179
X063801Y103580
M30
